<?xml version="1.0" standalone="no"?> <!DOCTYPE svg PUBLIC "-//W3C//DTD SVG 20010904//EN" "http://www.w3.org/TR/2001/REC-SVG-20010904/DTD/svg10.dtd"> <svg version="1.0" xmlns="http://www.w3.org/2000/svg" width="600.000000pt" height="95.000000pt" viewBox="0 0 600.000000 95.000000" preserveAspectRatio="xMidYMid meet"> <g transform="translate(0.000000,95.000000) scale(0.050000,-0.050000)" fill="#229b40" stroke="none"> <path d="M1519 1872 c17 -22 17 -32 -1 -43 -15 -10 -19 -7 -10 8 27 44 -12 23 -52 -27 -21 -28 -49 -44 -61 -37 -12 8 -15 4 -7 -10 8 -13 7 -23 -2 -23 -9 0 -33 -36 -54 -80 -21 -43 -45 -74 -53 -69 -9 5 -13 -13 -10 -41 3 -28 -5 -50 -17 -50 -13 0 -25 -16 -26 -35 -4 -51 -14 -93 -26 -105 -30 -30 -61 -103 -38 -89 18 11 21 5 11 -19 -7 -20 -13 -40 -13 -45 0 -5 -11 -3 -25 6 -18 10 -17 5 2 -19 23 -28 22 -38 -5 -65 -18 -17 -32 -46 -32 -63 0 -17 -16 -44 -35 -60 -23 -19 -25 -25 -5 -16 17 7 3 -11 -30 -41 -33 -29 -49 -47 -35 -40 17 9 20 3 12 -20 -7 -18 -27 -28 -45 -24 -23 6 -33 -7 -36 -48 -4 -49 -69 -167 -110 -198 -8 -5 -6 -23 3 -38 11 -17 7 -45 -11 -72 -41 -61 -51 -131 -25 -163 13 -16 14 -26 2 -26 -38 0 -14 -91 37 -140 54 -52 227 -151 207 -119 -6 11 16 13 53 6 50 -10 61 -7 48 13 -11 18 -8 21 8 11 13 -8 45 -10 70 -3 52 13 184 132 147 133 -14 0 0 22 30 49 34 29 50 60 43 79 -7 17 -2 31 10 31 12 0 22 12 22 27 0 33 55 35 68 1 5 -14 41 -40 80 -58 38 -18 67 -44 64 -57 -3 -13 -2 -17 2 -9 5 7 39 8 77 2 41 -7 81 -1 99 14 16 14 30 17 30 7 0 -9 8 -5 18 10 25 40 96 -4 133 -83 16 -35 25 -46 19 -24 -9 34 -4 32 29 -10 22 -27 40 -57 41 -65 0 -8 10 -15 21 -15 12 0 36 -14 54 -32 18 -18 51 -28 79 -22 30 5 54 -3 65 -24 16 -27 22 -28 45 -4 22 23 21 25 -2 12 -18 -10 -23 -8 -15 6 15 24 90 21 132 -5 17 -11 22 -10 14 4 -7 12 13 30 47 42 33 12 60 15 61 7 0 -8 15 18 32 56 35 76 53 166 31 152 -8 -4 -15 11 -16 35 -3 51 -80 255 -103 272 -38 27 -62 116 -38 140 18 18 15 20 -9 11 -21 -8 -39 1 -48 24 -44 101 33 218 132 199 44 -9 62 -3 79 28 11 22 28 36 36 31 9 -6 31 8 49 29 19 21 49 39 69 39 21 0 27 -6 13 -15 -26 -17 -29 -85 -5 -85 26 0 20 -109 -7 -136 -19 -19 -19 -24 0 -24 25 0 24 -53 -2 -94 -8 -13 -6 -29 6 -36 11 -7 20 -37 19 -66 0 -52 -1 -52 -30 -15 -16 21 -29 30 -29 19 0 -11 11 -31 25 -45 16 -16 25 -88 26 -204 l0 -179 98 -90 c92 -84 171 -107 171 -49 0 11 15 19 33 19 19 0 29 5 23 11 -7 6 13 39 44 72 49 54 66 175 30 214 -8 8 66 83 81 83 6 0 7 -8 1 -17 -21 -34 135 -87 192 -65 39 15 56 13 63 -4 5 -13 11 -8 11 11 1 19 12 35 25 35 13 0 52 22 87 49 48 36 70 43 87 26 13 -13 23 -15 23 -6 0 9 23 -8 50 -37 28 -30 68 -56 90 -58 22 -1 40 -8 40 -16 0 -7 30 -12 66 -11 36 0 78 -7 93 -16 17 -11 23 -10 14 4 -14 23 35 71 80 78 44 6 147 -34 147 -57 0 -11 12 -16 28 -10 15 6 36 2 47 -9 13 -13 64 18 150 91 l130 111 61 -58 c33 -32 54 -65 47 -73 -7 -8 2 -9 21 -2 26 9 31 4 21 -22 -11 -30 -8 -31 21 -7 30 24 34 23 36 -10 1 -22 5 -27 12 -11 7 20 16 20 38 2 15 -12 28 -16 28 -8 0 8 13 4 29 -9 16 -14 37 -20 46 -14 9 6 30 2 45 -7 17 -11 39 -9 54 3 14 12 39 16 55 10 16 -6 35 -3 41 7 6 10 24 13 41 7 16 -6 29 0 29 13 0 16 19 21 51 15 28 -5 46 -5 40 1 -10 10 46 67 156 159 53 44 133 36 133 -13 0 -9 29 -47 65 -84 36 -37 63 -75 60 -83 -7 -21 11 -19 59 7 23 12 36 13 29 2 -20 -31 55 -41 84 -11 14 16 33 23 43 17 9 -6 43 16 75 48 65 65 150 71 216 15 21 -18 44 -31 50 -28 7 3 27 -11 47 -30 35 -35 195 -40 246 -8 13 7 29 5 36 -7 27 -44 231 6 214 53 -3 10 26 22 65 29 39 6 71 4 71 -5 0 -8 15 -10 33 -3 20 8 29 5 21 -7 -19 -31 49 -76 126 -83 39 -3 73 -15 78 -28 4 -12 18 -2 31 23 21 38 29 41 53 18 37 -36 198 -38 198 -3 0 14 14 26 30 26 17 0 30 10 30 21 0 12 9 16 20 9 11 -7 20 -3 20 7 0 19 62 48 110 53 11 1 39 -10 62 -24 22 -14 47 -20 55 -13 7 8 13 3 13 -10 0 -13 14 -23 31 -23 17 0 26 -9 19 -20 -15 -24 -5 -25 190 -33 486 -18 582 -12 680 46 52 31 57 30 98 -11 24 -24 54 -37 66 -29 15 9 18 2 10 -20 -7 -18 -5 -33 5 -33 10 0 21 9 25 21 3 11 26 22 51 24 24 2 49 17 56 34 10 26 13 26 30 0 12 -19 18 -21 19 -4 0 43 7 54 64 101 57 48 106 183 90 245 -6 24 -1 33 17 26 18 -7 23 2 15 31 -6 25 -1 42 13 42 13 0 18 -9 11 -20 -7 -11 -5 -20 4 -20 9 0 16 -40 16 -90 0 -49 -9 -90 -20 -90 -11 0 -6 -9 10 -20 17 -11 21 -20 10 -20 -11 0 2 -12 30 -26 27 -13 60 -45 72 -71 13 -25 29 -44 37 -43 8 1 25 -11 38 -29 40 -54 186 -62 212 -12 13 23 31 37 41 31 11 -7 34 6 53 28 28 33 40 36 65 16 24 -20 27 -19 13 6 -9 17 5 8 31 -20 26 -27 45 -58 41 -70 -3 -11 0 -13 9 -5 8 9 37 -5 65 -30 42 -39 48 -40 36 -8 -11 31 -6 36 33 26 26 -7 64 0 87 16 34 24 49 24 92 2 60 -31 161 -27 204 8 17 14 45 20 62 13 18 -6 26 -3 19 8 -7 11 11 20 41 20 59 0 155 -66 133 -92 -8 -9 0 -7 16 5 17 12 64 20 105 18 41 -1 75 6 75 16 0 10 15 6 34 -10 18 -15 28 -18 22 -7 -17 28 34 93 67 86 16 -4 25 8 21 29 -3 19 4 35 16 35 12 0 17 9 10 20 -7 11 -3 20 8 20 14 0 15 16 4 45 -10 25 -19 54 -21 65 -10 47 -64 160 -82 171 -49 30 -26 199 27 199 10 0 14 18 8 39 -5 22 -1 42 9 45 11 4 22 20 25 36 3 17 12 44 19 60 27 65 -1 108 -141 220 -55 44 -182 46 -250 3 -75 -46 -98 -45 -191 4 -36 19 -65 30 -65 26 0 -5 -31 -2 -70 7 -38 9 -65 9 -60 0 5 -8 -13 -20 -40 -25 -28 -5 -50 -3 -50 4 0 8 -11 14 -25 14 -14 0 -59 7 -100 15 -43 8 -75 6 -75 -5 0 -10 -29 -14 -65 -10 -36 5 -139 12 -228 16 -90 3 -173 13 -185 20 -12 7 -59 3 -106 -10 -61 -17 -87 -17 -92 -1 -4 12 -27 21 -51 21 -42 -2 -42 -2 -3 -19 30 -13 14 -18 -61 -19 -74 -1 -125 -16 -190 -57 -49 -30 -99 -55 -110 -55 -30 1 -90 63 -75 78 6 6 -8 8 -31 4 -23 -5 -47 0 -54 11 -6 10 -20 13 -30 7 -11 -6 -19 -3 -19 7 0 22 -96 6 -111 -18 -6 -10 -29 -18 -50 -18 -23 0 -39 -14 -39 -32 0 -44 -117 -23 -160 28 -52 62 -213 59 -263 -5 -61 -77 -156 -124 -159 -77 0 20 -6 25 -11 12 -6 -15 -37 2 -82 45 -41 38 -93 69 -118 69 -25 0 -51 10 -58 22 -9 15 -18 15 -26 2 -7 -11 -31 -23 -53 -27 -22 -4 -56 -25 -76 -46 -87 -95 -137 -113 -183 -65 -23 24 -56 55 -74 69 -38 30 -197 56 -197 32 0 -10 -27 -29 -60 -44 -37 -16 -55 -36 -46 -50 7 -13 -3 -9 -24 7 -22 17 -31 20 -23 5 27 -44 -39 -27 -95 25 -30 28 -63 50 -74 50 -11 0 -14 10 -6 23 10 16 5 18 -14 6 -15 -10 -53 -15 -82 -12 -41 4 -75 -13 -130 -67 -47 -45 -88 -69 -110 -63 -20 5 -36 1 -36 -10 0 -10 -32 13 -71 52 -39 39 -80 71 -91 71 -11 0 -16 7 -11 15 24 38 -192 8 -235 -33 -25 -23 -52 -36 -62 -27 -9 8 -11 6 -5 -5 18 -32 -38 -96 -69 -79 -14 9 -20 8 -12 0 8 -9 -22 -82 -65 -163 -44 -82 -73 -148 -66 -148 8 0 -2 -12 -22 -27 -23 -17 -31 -37 -21 -53 10 -17 6 -22 -12 -15 -15 5 -25 21 -22 35 3 13 -6 44 -21 67 -15 24 -25 63 -24 88 2 27 -8 45 -25 45 -16 0 -23 9 -16 20 6 10 -28 59 -77 108 -49 49 -84 95 -77 102 7 7 -4 6 -25 -2 -30 -12 -35 -8 -25 20 8 21 6 29 -7 21 -11 -7 -57 7 -102 30 -128 67 -299 58 -469 -23 -32 -15 -60 -11 -110 15 -74 38 -178 54 -178 27 0 -10 -18 -18 -40 -18 -22 0 -40 -13 -40 -29 0 -76 -120 -79 -188 -5 -28 30 -56 55 -61 54 -6 0 -13 1 -16 2 -51 16 -131 0 -181 -36 -76 -57 -101 -57 -187 -4 -89 55 -238 47 -300 -16 -23 -24 -48 -38 -55 -31 -7 6 -12 -3 -12 -22 0 -18 -8 -33 -17 -33 -28 0 -117 -145 -132 -216 -8 -35 -22 -64 -33 -64 -10 0 -18 -19 -18 -41 0 -27 -8 -36 -23 -27 -16 10 -20 4 -12 -16 9 -23 2 -29 -25 -22 -30 8 -37 30 -37 120 0 60 -4 114 -10 119 -5 6 -2 37 8 69 10 35 9 54 -2 47 -11 -6 -12 7 -2 33 9 25 10 79 3 120 -8 43 -6 84 5 95 22 22 -54 163 -87 163 -10 0 -18 14 -18 31 0 17 -9 26 -20 19 -18 -11 -28 14 -23 54 1 7 -17 20 -40 27 -44 14 -135 -71 -136 -127 -1 -15 -9 -22 -18 -16 -9 6 -29 -12 -43 -39 -15 -27 -39 -49 -53 -49 -15 0 -27 -10 -27 -21 0 -12 -13 -8 -30 8 -16 17 -30 40 -30 53 0 12 -8 17 -18 11 -10 -6 -23 3 -29 19 -7 17 -23 30 -37 30 -18 -1 -17 -6 4 -20 23 -15 16 -20 -30 -20 -33 0 -82 -6 -108 -13 -34 -9 -44 -6 -34 10 9 14 3 18 -17 11 -17 -7 -27 -19 -22 -27 9 -14 -185 -73 -215 -65 -10 3 -12 -4 -5 -14 13 -21 -21 -48 -70 -56 -17 -2 -47 22 -66 55 -20 32 -29 59 -22 59 8 0 -20 32 -62 70 -42 39 -83 70 -92 70 -8 0 -20 17 -26 37 -10 32 -36 37 -204 40 -163 3 -188 -1 -168 -25z m384 -220 c14 -34 66 -151 117 -259 l93 -198 -111 -117 c-129 -136 -118 -141 -213 97 -86 218 -94 221 -150 66 l-44 -119 -53 40 c-58 43 -146 55 -219 30 -41 -14 -44 -11 -27 21 40 74 200 422 212 460 11 36 30 40 191 40 l179 0 25 -61z m1183 -687 c4 -698 2 -745 -31 -745 -33 0 -35 49 -35 751 0 669 3 751 31 745 27 -5 32 -96 35 -751z m-408 381 c-26 -130 -49 -240 -53 -245 -3 -4 -37 22 -75 59 -38 37 -72 63 -75 59 -3 -5 -124 -132 -270 -282 -219 -225 -265 -283 -265 -332 0 -117 -132 -198 -249 -153 -37 15 -91 110 -91 161 0 19 -33 69 -74 111 -103 106 -158 102 -266 -19 -138 -155 -385 -407 -392 -399 -20 20 236 492 300 553 40 39 72 88 72 113 0 96 78 168 181 168 56 0 159 -105 159 -163 0 -26 31 -81 69 -122 115 -126 140 -114 448 211 l268 283 -66 55 c-37 30 -63 59 -58 63 13 12 468 127 476 121 4 -3 -13 -112 -39 -242z m1338 -356 c191 -442 183 -402 77 -393 -82 6 -91 12 -119 86 l-31 79 -165 -6 -165 -6 -23 -70 c-22 -65 -30 -70 -116 -76 l-92 -6 28 56 c27 55 237 550 272 642 15 40 30 45 102 40 l84 -6 148 -340z m284 332 c0 -21 159 -302 171 -302 4 0 46 72 93 160 l86 159 85 1 c47 0 85 -3 85 -6 0 -4 -64 -114 -142 -245 -142 -237 -142 -238 -134 -363 l8 -126 -86 0 -86 0 0 137 c0 145 -2 149 -273 588 -5 8 36 15 92 15 55 0 101 -8 101 -18z m1129 -50 c313 -239 103 -737 -288 -684 -365 50 -440 540 -111 720 99 54 306 35 399 -36z m965 33 c22 -64 248 -591 278 -648 l29 -57 -92 0 c-89 0 -93 3 -124 80 l-31 80 -159 0 -158 0 -31 -78 c-28 -71 -155 -127 -203 -90 -4 3 56 152 132 332 77 179 146 346 154 371 18 59 184 67 205 10z m676 -185 c198 -270 199 -270 182 0 l-14 220 91 0 91 0 -2 -370 -2 -370 -74 0 c-71 0 -81 9 -243 225 l-169 225 -6 -79 c-4 -43 -4 -145 0 -225 l6 -146 -85 0 -85 0 0 370 0 370 75 -1 c72 -1 82 -10 235 -219z m1047 -155 l157 -365 -94 0 c-92 0 -94 1 -118 80 l-24 80 -166 0 -166 0 -24 -80 c-23 -78 -26 -80 -112 -80 l-88 0 91 215 c50 118 119 285 152 371 l62 156 87 -6 87 -6 156 -365z m399 75 l-6 -300 175 0 175 0 0 -70 0 -70 -259 0 -259 0 -1 370 -1 370 91 0 91 0 -6 -300z m528 150 c106 -188 105 -188 161 -77 111 218 119 227 200 227 96 0 98 7 -55 -251 -124 -211 -129 -224 -130 -354 l0 -135 -80 0 -80 0 0 132 c0 132 -54 252 -256 564 l-30 46 95 -6 96 -6 79 -140z m1056 80 l0 -70 -110 0 -110 0 0 -300 0 -300 -80 0 -80 0 0 300 0 300 -110 0 -110 0 0 70 0 70 300 0 300 0 0 -70z m260 -300 l0 -370 -85 0 -85 0 6 370 6 370 79 0 79 0 0 -370z m356 251 c90 -146 78 -146 171 -1 75 117 80 120 165 120 109 0 111 14 -34 -189 -77 -108 -115 -179 -106 -195 9 -14 69 -101 134 -192 65 -92 115 -169 111 -172 -64 -46 -202 20 -270 130 -89 145 -85 145 -175 -2 l-74 -120 -98 0 -98 0 114 162 c63 89 122 173 131 186 12 16 -25 85 -105 199 -146 208 -143 193 -31 193 89 0 92 -2 165 -119z m-8292 -672 l153 -329 -183 0 -184 1 -85 194 c-47 107 -85 203 -85 212 0 19 203 250 220 251 6 0 79 -148 164 -329z m-1024 157 c0 -8 -47 -120 -104 -250 l-104 -236 -150 0 -150 0 239 247 c226 234 269 272 269 239z"/> <path d="M1342 1012 c-56 -67 43 -166 110 -110 49 40 27 127 -34 134 -28 3 -63 -8 -76 -24z"/> <path d="M1700 640 c-31 -58 43 -130 102 -99 53 28 68 72 38 109 -35 43 -115 37 -140 -10z"/> <path d="M3729 1045 c-21 -63 -41 -126 -45 -140 -5 -18 25 -25 102 -25 l110 0 -53 140 c-63 169 -66 170 -114 25z"/> <path d="M5088 1162 c-223 -136 -55 -512 184 -412 123 51 176 195 117 319 -59 124 -186 163 -301 93z"/> <path d="M6238 1035 c-26 -69 -51 -132 -54 -140 -4 -8 43 -15 104 -15 129 0 126 -6 65 145 -63 154 -60 154 -115 10z"/> <path d="M7818 1035 c-26 -69 -51 -132 -54 -140 -4 -8 43 -15 104 -15 129 0 126 -6 65 145 -63 154 -60 154 -115 10z"/> </g> </svg>