<?xml version="1.0" standalone="no"?>
<!DOCTYPE svg PUBLIC "-//W3C//DTD SVG 20010904//EN"
 "http://www.w3.org/TR/2001/REC-SVG-20010904/DTD/svg10.dtd">
<svg version="1.0" xmlns="http://www.w3.org/2000/svg"
 width="1800.000000pt" height="240.000000pt" viewBox="0 0 1800.000000 240.000000"
 preserveAspectRatio="xMidYMid meet">
<g transform="translate(0.000000,240.000000) scale(0.100000,-0.100000)"
fill="#00b08b" stroke="none">
<path d="M1846 1775 l-15 -15 5 -163 6 -162 16 -54 c33 -114 115 -194 231
-228 l56 -16 146 7 146 6 18 -20 18 -20 -8 -142 c-10 -174 -10 -187 3 -200
l10 -10 111 -1 112 0 14 14 14 14 -9 153 -9 152 9 24 c12 33 14 33 215 28
l180 -4 56 21 c30 12 74 37 97 56 l41 36 32 64 32 65 10 190 9 190 -12 15 -12
15 -107 0 -107 0 -18 -13 -19 -14 10 -136 c6 -76 8 -151 4 -169 l-6 -31 -28
-21 -28 -21 -62 0 c-34 0 -240 1 -458 3 l-397 2 -21 18 c-12 9 -26 34 -30 54
l-9 37 9 127 9 127 -17 19 -16 18 -108 0 -108 0 -15 -15z"/>
<path d="M7508 1779 l-11 -7 -2 -501 -2 -500 15 -6 c8 -3 59 -8 113 -11 l99
-6 26 17 26 17 -6 56 c-15 148 -25 312 -28 470 l-3 173 15 9 c31 20 53 7 179
-102 70 -62 156 -135 191 -163 34 -27 78 -63 97 -80 20 -16 100 -81 178 -145
78 -63 175 -142 215 -175 l73 -60 165 -3 165 -3 8 8 9 9 3 497 4 496 -11 11
-10 10 -112 0 -112 0 -11 -13 -11 -14 10 -259 c5 -142 11 -298 12 -345 l3 -86
-14 -17 c-24 -28 -49 -18 -134 57 -86 76 -316 268 -476 397 -51 41 -145 119
-209 173 -64 53 -123 97 -131 98 -98 4 -314 3 -323 -2z"/>
<path d="M10910 1781 l-14 -10 3 -493 c1 -271 6 -497 10 -501 4 -4 352 -9 772
-10 l764 -2 3 114 3 113 -10 12 -10 12 -626 -4 -625 -5 -16 14 -17 14 7 363 7
364 -12 14 -11 14 -107 0 c-58 0 -113 -4 -121 -9z"/>
<path d="M12369 1766 l-11 -24 9 -184 10 -183 22 -43 c12 -24 40 -63 62 -87
l39 -42 63 -29 62 -29 160 -1 c196 -1 181 1 200 -27 l15 -24 -11 -153 -10
-153 14 -15 15 -14 110 -1 c60 0 115 4 121 8 l13 7 -7 172 -6 171 10 15 10 15
208 0 208 0 58 30 59 30 35 43 c20 24 45 67 56 95 l20 52 5 184 4 185 -18 13
-18 13 -102 0 -102 0 -12 -15 c-15 -19 -16 -34 -5 -195 l8 -125 -28 -33 -27
-33 -473 3 -473 3 -22 20 -22 20 4 165 c1 91 -1 171 -5 178 l-8 12 -115 0
-114 0 -11 -24z"/>
<path d="M15788 1772 l-20 -14 6 -122 c4 -66 3 -285 -2 -486 l-9 -365 13 -14
13 -14 103 2 c57 1 111 4 121 7 l17 5 -2 377 c-2 207 -1 430 1 495 l4 118 -9
8 c-5 5 -55 11 -112 13 l-104 4 -20 -14z"/>
<path d="M16208 1779 l-18 -10 0 -122 c0 -152 12 -234 45 -314 l25 -62 -6 -18
c-4 -10 -18 -47 -31 -83 l-25 -64 -2 -171 -1 -170 114 -3 113 -3 14 12 14 11
-7 143 c-7 158 -2 189 29 206 l21 11 426 -1 c234 0 447 -1 474 -1 l47 0 21
-21 22 -22 -8 -162 -7 -163 11 -6 c6 -4 59 -8 117 -10 l106 -2 19 15 19 16 -8
186 -8 187 -17 25 c-9 14 -19 43 -23 64 l-6 38 22 55 22 55 8 179 9 180 -10
18 -10 18 -113 0 -114 0 -11 -14 -12 -14 7 -164 6 -163 -26 -24 -27 -25 -467
2 -467 2 -25 19 -25 18 0 169 c0 93 -4 175 -8 182 l-8 12 -102 0 c-56 0 -110
-5 -119 -11z"/>
<path d="M747 1768 c-9 -7 -69 -103 -133 -213 -301 -519 -258 -447 -386 -642
-85 -129 -88 -137 -57 -153 l20 -11 114 7 114 7 15 16 c8 9 33 53 56 99 23 45
50 87 60 92 l18 10 330 2 330 2 22 -19 c12 -11 42 -59 66 -107 l44 -88 23 -4
c12 -3 78 -7 146 -8 l123 -3 11 16 10 17 -105 158 c-58 88 -132 204 -165 259
-88 149 -146 248 -159 270 -6 11 -43 76 -82 145 -39 69 -79 133 -88 143 l-17
17 -147 0 -146 0 -17 -12z m190 -245 c36 -40 173 -276 173 -300 0 -10 -5 -24
-12 -31 l-12 -12 -187 0 -187 0 -12 15 -12 15 11 31 c6 18 21 46 34 63 23 31
53 81 102 171 44 81 63 90 102 48z"/>
<path d="M3904 1761 c-81 -23 -147 -63 -212 -128 l-53 -52 -34 -73 c-74 -155
-75 -340 -3 -484 l33 -67 65 -59 c70 -64 105 -85 188 -113 l53 -17 457 -1 457
0 60 17 c159 46 276 164 334 334 l21 62 0 89 0 88 -20 63 c-55 171 -181 295
-349 342 l-66 18 -435 -1 -435 -1 -61 -17z m958 -249 c46 -19 110 -84 134
-137 l24 -50 0 -56 0 -56 -31 -61 c-32 -66 -59 -90 -134 -122 l-47 -20 -395 0
-396 0 -54 17 -54 17 -36 35 c-20 19 -45 55 -56 80 l-20 46 0 71 1 70 21 40
c74 139 83 141 606 139 l410 -2 27 -11z"/>
<path d="M6398 1769 c-10 -5 -39 -49 -65 -97 -26 -48 -80 -142 -120 -210 -40
-67 -73 -125 -73 -127 0 -14 -202 -341 -293 -474 l-50 -74 10 -16 11 -16 123
3 124 3 21 22 c12 12 38 54 58 93 20 39 45 79 56 89 l19 17 328 1 328 0 21
-11 20 -11 48 -95 48 -95 18 -6 c10 -3 75 -7 145 -8 l127 -3 9 17 9 17 -33 49
c-18 26 -70 109 -116 183 -46 74 -101 162 -121 195 -47 75 -250 425 -279 482
-11 23 -31 51 -43 63 l-22 20 -145 0 -146 -1 -17 -10z m202 -251 c11 -12 20
-26 20 -31 0 -11 94 -170 122 -206 10 -13 18 -38 18 -56 l0 -33 -16 -6 c-20
-8 -358 -8 -378 0 l-16 6 0 25 0 24 74 127 c41 70 82 137 91 150 l16 22 24 0
c13 0 33 -10 45 -22z"/>
<path d="M9802 1764 c-12 -8 -30 -32 -40 -52 -34 -68 -84 -157 -106 -186 -11
-17 -30 -47 -41 -68 -67 -128 -260 -450 -357 -597 -66 -97 -56 -107 102 -102
l115 3 13 11 c8 6 34 50 58 99 24 48 53 92 63 98 l20 10 330 0 c181 0 337 -3
346 -6 9 -4 38 -51 66 -105 l49 -99 22 -4 c13 -3 73 -7 133 -10 l110 -4 18 9
c26 15 22 29 -36 115 -29 43 -81 126 -116 184 -35 58 -74 121 -86 140 -44 69
-227 382 -267 458 -23 42 -50 87 -61 100 l-20 22 -147 0 -146 0 -22 -16z m206
-251 c10 -16 33 -54 50 -85 17 -32 47 -83 67 -114 20 -30 38 -68 41 -83 l6
-27 -15 -12 -15 -12 -188 2 -189 3 -3 32 -3 32 43 71 c24 39 48 79 53 88 76
132 76 132 112 132 l22 0 19 -27z"/>
<path d="M14070 1760 l-9 -17 4 -97 4 -98 13 -15 13 -16 296 6 296 7 18 -20
17 -19 -6 -198 c-3 -109 -9 -270 -12 -359 l-6 -160 24 -10 23 -10 103 1 104 2
14 14 14 14 -10 349 -10 349 15 24 15 23 298 -7 297 -6 12 14 12 14 2 102 3
102 -12 14 -12 15 -755 0 -756 0 -9 -18z"/>
</g>
</svg>
